<svg xmlns="http://www.w3.org/2000/svg" viewBox="0 0 512 512" width="512" height="512" role="img">
  <path fill="#202020" transform="translate(0 480) scale(1 -1)" d="M256-29.866c-139.981 0-253.867 113.886-253.867 253.867s113.886 253.867 253.867 253.867c139.964 0 253.866-113.886 253.866-253.867s-113.903-253.867-253.867-253.867zM256 460.8c-130.577 0-236.8-106.24-236.8-236.8s106.223-236.8 236.8-236.8c130.56 0 236.8 106.24 236.8 236.8s-106.24 236.8-236.8 236.8zM256 66.134c-4.71 0-8.534 3.84-8.534 8.534s3.823 8.534 8.534 8.534c77.637 0 140.8 63.163 140.8 140.8s-63.163 140.8-140.8 140.8c-77.637 0-140.8-63.163-140.8-140.8 0-4.711-3.84-8.534-8.534-8.534-4.71 0-8.534 3.823-8.534 8.534 0 87.057 70.793 157.867 157.867 157.867 87.057 0 157.867-70.81 157.867-157.867 0-87.074-70.827-157.867-157.867-157.867zM106.666 194.134c-2.168 0-4.335.819-6.025 2.474l-43.059 42.666c-3.345 3.311-3.379 8.721-.051 12.066s8.721 3.379 12.083.069l37.069-36.728 37.12 36.727c3.345 3.311 8.755 3.277 12.066-.069s3.277-8.755-.069-12.066l-43.127-42.667c-1.672-1.656-3.84-2.474-6.007-2.474z"/>
</svg>
